<svg width="109" height="52" viewBox="0 0 109 52" fill="none" xmlns="http://www.w3.org/2000/svg">
<circle cx="15" cy="26" r="12.5" stroke="#0F0F0F" stroke-width="5"/>
<path d="M45.168 18.576H48.032L50.88 27.104L53.808 18.576H56.592V30H54.4V22.384L51.792 30H49.936L47.312 22.4V30H45.168V18.576ZM66.4056 27.392C66.2456 28.336 65.8776 29.056 65.2696 29.536C64.6616 30.016 63.7976 30.256 62.6456 30.256C61.2536 30.256 60.2136 29.872 59.5096 29.104C58.8056 28.336 58.4696 27.248 58.4696 25.84C58.4696 25.136 58.5656 24.512 58.7736 23.968C58.9656 23.424 59.2536 22.944 59.6216 22.56C59.9896 22.176 60.4376 21.888 60.9496 21.696C61.4616 21.504 62.0216 21.392 62.6456 21.392C63.9256 21.392 64.8856 21.76 65.5256 22.496C66.1656 23.232 66.5016 24.224 66.5016 25.472V26.368H60.7096C60.7256 27.04 60.9016 27.568 61.2216 27.952C61.5416 28.336 62.0216 28.512 62.6616 28.512C63.5416 28.512 64.0696 28.144 64.2296 27.392H66.4056ZM64.3416 24.896C64.3416 24.32 64.1976 23.872 63.9096 23.552C63.6216 23.232 63.1896 23.072 62.5976 23.072C62.2936 23.072 62.0376 23.12 61.8136 23.216C61.5896 23.312 61.3976 23.456 61.2376 23.616C61.0776 23.776 60.9656 23.968 60.8856 24.192C60.7896 24.416 60.7416 24.64 60.7416 24.896H64.3416ZM73.9715 28.896C73.3315 29.808 72.4675 30.256 71.3795 30.256C70.1955 30.256 69.3315 29.872 68.7555 29.072C68.1795 28.288 67.8915 27.2 67.8915 25.792C67.8915 25.152 67.9715 24.56 68.1315 24.016C68.2915 23.472 68.5315 23.008 68.8515 22.624C69.1555 22.24 69.5395 21.936 69.9875 21.712C70.4355 21.504 70.9315 21.392 71.5075 21.392C71.9235 21.392 72.3235 21.472 72.7395 21.616C73.1555 21.776 73.5395 22.064 73.9075 22.48V18.576H76.1475V30H73.9715V28.896ZM73.9235 25.728C73.9235 25.2 73.8755 24.768 73.7795 24.448C73.6835 24.128 73.5395 23.872 73.3475 23.664C73.1555 23.472 72.9315 23.36 72.7075 23.296C72.4835 23.232 72.2595 23.2 72.0355 23.2C71.7795 23.2 71.5555 23.248 71.3315 23.344C71.1075 23.44 70.9155 23.6 70.7555 23.792C70.5955 24 70.4675 24.272 70.3715 24.592C70.2755 24.928 70.2275 25.328 70.2275 25.776C70.2275 26.288 70.2595 26.704 70.3555 27.04C70.4515 27.376 70.5795 27.648 70.7395 27.856C70.8995 28.064 71.0755 28.208 71.2995 28.304C71.5075 28.4 71.7315 28.432 71.9875 28.432C72.5155 28.432 72.9475 28.288 73.2995 27.968C73.5075 27.76 73.6675 27.504 73.7635 27.2C73.8595 26.896 73.9235 26.496 73.9235 26.016V25.728ZM78.1486 21.648H80.3886V30H78.1486V21.648ZM78.1166 18.576H80.4206V20.592H78.1166V18.576ZM89.8866 26.976C89.7906 27.984 89.4546 28.784 88.8466 29.376C88.2386 29.968 87.3426 30.256 86.1426 30.256C85.4386 30.256 84.8306 30.16 84.3186 29.936C83.8066 29.728 83.3746 29.424 83.0546 29.04C82.7346 28.656 82.4946 28.192 82.3346 27.648C82.1746 27.104 82.0946 26.512 82.0946 25.84C82.0946 25.184 82.1746 24.576 82.3666 24.032C82.5586 23.488 82.8306 23.008 83.1826 22.624C83.5346 22.24 83.9666 21.936 84.4786 21.712C84.9906 21.504 85.5666 21.392 86.2386 21.392C86.7986 21.392 87.2946 21.472 87.7106 21.616C88.1266 21.76 88.4946 21.952 88.7826 22.208C89.0706 22.464 89.2946 22.784 89.4546 23.136C89.6146 23.488 89.7106 23.888 89.7746 24.304L87.5186 24.608C87.4546 24.192 87.3426 23.84 87.1506 23.584C86.9586 23.328 86.6226 23.184 86.1586 23.184C85.8066 23.184 85.5346 23.264 85.3106 23.408C85.0866 23.552 84.8946 23.744 84.7666 23.984C84.6386 24.24 84.5426 24.512 84.4946 24.832C84.4306 25.152 84.4146 25.472 84.4146 25.808C84.4146 26.16 84.4306 26.496 84.4946 26.816C84.5426 27.136 84.6386 27.424 84.7666 27.664C84.8946 27.92 85.0706 28.112 85.2946 28.256C85.5186 28.4 85.7906 28.464 86.1426 28.464C86.5906 28.464 86.9266 28.336 87.1826 28.08C87.4226 27.824 87.5666 27.456 87.6146 26.976H89.8866ZM91.5598 31.184C91.8638 31.28 92.1838 31.312 92.5038 31.312C92.7918 31.312 93.0318 31.248 93.2238 31.104C93.3998 30.96 93.5598 30.704 93.6878 30.336L93.9438 29.632L90.4718 21.648H93.0638L95.0158 27.136L96.8398 21.648H99.2878L95.9118 30.24C95.7198 30.72 95.5278 31.152 95.3678 31.504C95.1918 31.856 94.9998 32.16 94.7758 32.4C94.5518 32.64 94.2958 32.816 93.9918 32.928C93.6878 33.056 93.3198 33.104 92.8718 33.104C92.5838 33.104 92.3118 33.088 92.0398 33.056C91.7678 33.024 91.4798 32.944 91.1918 32.848L91.5598 31.184ZM100.414 21.648H102.59V22.8C102.91 22.32 103.31 21.952 103.758 21.728C104.206 21.504 104.686 21.392 105.182 21.392C106.126 21.392 106.83 21.648 107.294 22.144C107.742 22.64 107.982 23.424 107.982 24.48V30H105.742V24.784C105.742 24.208 105.63 23.808 105.406 23.584C105.182 23.376 104.878 23.264 104.51 23.264C104.222 23.264 103.966 23.312 103.758 23.392C103.55 23.488 103.358 23.6 103.182 23.76C103.022 23.92 102.894 24.096 102.798 24.304C102.702 24.512 102.654 24.736 102.654 24.976V30H100.414V21.648Z" fill="#0F0F0F"/>
</svg>
